<svg t="1568537562989" class="icon" viewBox="0 0 1024 1024" version="1.1" xmlns="http://www.w3.org/2000/svg" p-id="1882" width="200" height="200"><path d="M512 0C228.266667 0 0 228.266667 0 512s228.266667 512 512 512 512-228.266667 512-512S795.733333 0 512 0zM275.2 396.8l78.933333 78.933333c8.533333 8.533333 8.533333 21.333333 0 29.866667-8.533333 8.533333-21.333333 8.533333-29.866666 0L245.333333 426.666667c-49.066667-49.066667-49.066667-130.133333 0-181.333334 49.066667-49.066667 130.133333-49.066667 181.333334 0l138.666666 138.666667c49.066667 49.066667 49.066667 130.133333 0 181.333333-8.533333 8.533333-21.333333 8.533333-29.866666 0-8.533333-8.533333-8.533333-21.333333 0-29.866666 34.133333-34.133333 34.133333-87.466667 0-121.6l-138.666667-138.666667c-34.133333-34.133333-87.466667-34.133333-121.6 0-32 34.133333-32 87.466667 0 121.6z m482.133333 360.533333c-49.066667 49.066667-130.133333 49.066667-181.333333 0L437.333333 618.666667c-49.066667-49.066667-49.066667-130.133333 0-181.333334 8.533333-8.533333 21.333333-8.533333 29.866667 0 8.533333 8.533333 8.533333 21.333333 0 29.866667-34.133333 34.133333-34.133333 87.466667 0 121.6l138.666667 138.666667c34.133333 34.133333 87.466667 34.133333 121.6 0 34.133333-34.133333 34.133333-87.466667 0-121.6l-78.933334-78.933334c-8.533333-8.533333-8.533333-21.333333 0-29.866666 8.533333-8.533333 21.333333-8.533333 29.866667 0l78.933333 78.933333c49.066667 49.066667 49.066667 130.133333 0 181.333333z" fill="#d81e06" p-id="1883"></path></svg>